# xmcd CD database file
#
# Track frame offsets:
#	150
#	26959
#	60621
#	85474
#	89843
#	92981
#	116670
#	138152
#	162249
#	190571
#	197697
#
# Disc length: 2984 seconds
#
# Revision: 0
# Processed by: cddbd v1.5.1PL2 Copyright (c) Steve Scherf et al.
# Submitted via: CDex 1.51
#
DISCID=980ba60b
DTITLE=MENOS TR3S - Correspondencia
DYEAR=2006
DGENRE=Jazz
TTITLE0=Pintado en el Mar
TTITLE1=A-Tentado
TTITLE2=Retrato Virtual
TTITLE3=Cartas II
TTITLE4=Intro Sima
TTITLE5=Sima
TTITLE6=Tolerancia "Mi"
TTITLE7=Estructuras
TTITLE8=Märtin...PC
TTITLE9=Cartas I
TTITLE10=Ana K.
EXTD=YEAR: 2006
EXTT0=
EXTT1=
EXTT2=
EXTT3=
EXTT4=
EXTT5=
EXTT6=
EXTT7=
EXTT8=
EXTT9=
EXTT10=
PLAYORDER=
